{"glyphs":{"0":{"ha":833,"x_min":0,"x_max":0,"o":""},"1":{"ha":833,"x_min":0,"x_max":0,"o":""},"2":{"ha":833,"x_min":0,"x_max":0,"o":""},"3":{"ha":833,"x_min":0,"x_max":0,"o":""},"4":{"ha":833,"x_min":0,"x_max":0,"o":""},"5":{"ha":833,"x_min":0,"x_max":0,"o":""},"6":{"ha":833,"x_min":0,"x_max":0,"o":""},"7":{"ha":833,"x_min":0,"x_max":0,"o":""},"8":{"ha":833,"x_min":0,"x_max":0,"o":""},"9":{"ha":833,"x_min":0,"x_max":0,"o":""}," ":{"ha":417,"x_min":0,"x_max":0,"o":""},"A":{"ha":1121,"x_min":0,"x_max":0,"o":"m 540 1043 l 183 90 l 43 0 l 372 0 l 269 90 l 349 326 l 675 326 l 767 90 l 668 0 l 1078 0 l 933 90 z m 368 383 l 500 775 l 653 383 z "},"B":{"ha":860,"x_min":0,"x_max":0,"o":"m 313 956 l 392 956 b 565 774 486 956 565 886 b 389 571 565 683 513 571 l 301 571 z m 26 0 l 483 0 b 797 306 701 0 797 149 b 585 560 797 461 703 538 b 732 790 679 600 732 699 b 449 1014 732 919 629 1014 l 188 1014 l 26 1011 l 163 924 l 171 533 l 161 90 z m 301 513 l 410 513 b 631 288 539 513 631 426 b 435 58 631 175 567 58 l 313 58 z "},"C":{"ha":1153,"x_min":0,"x_max":0,"o":"m 1003 983 b 692 1028 885 1013 783 1028 b 94 488 308 1028 94 771 b 710 -26 94 224 297 -26 b 1003 25 808 -26 918 -11 l 1003 219 l 913 56 b 726 31 850 39 785 31 b 275 525 406 31 275 256 b 650 969 275 726 342 969 b 913 936 763 969 843 956 l 1003 772 z "},"D":{"ha":1193,"x_min":0,"x_max":0,"o":"m 529 58 l 321 58 l 310 533 l 321 956 l 464 956 b 908 485 726 956 908 771 b 529 58 908 275 764 58 z m 22 0 l 586 0 b 1083 524 876 0 1083 247 b 528 1014 1083 803 886 1014 l 183 1014 l 22 1011 l 158 924 l 167 533 l 157 90 z "},"E":{"ha":756,"x_min":0,"x_max":0,"o":"m 668 822 l 668 1014 l 33 1014 l 169 924 l 181 529 l 169 90 l 33 0 l 671 0 l 671 192 l 581 57 l 325 56 l 317 493 l 535 492 l 625 357 l 625 685 l 535 550 l 317 549 l 325 958 l 578 957 z "},"F":{"ha":753,"x_min":0,"x_max":0,"o":"m 668 822 l 668 1014 l 33 1014 l 169 924 l 181 529 l 169 90 l 33 0 l 461 0 l 326 90 l 317 493 l 532 492 l 622 357 l 622 685 l 532 550 l 317 549 l 328 958 l 578 957 z "},"G":{"ha":1064,"x_min":0,"x_max":0,"o":"m 1001 1017 b 679 1063 879 1047 775 1063 b 63 504 283 1063 63 825 b 699 -26 63 218 272 -26 b 1001 26 800 -26 914 -11 l 1001 575 l 482 575 l 482 519 l 885 519 l 885 53 b 715 33 828 39 768 33 b 192 551 385 33 192 251 b 636 1003 192 779 318 1003 b 911 961 726 1003 826 985 l 1001 799 z "},"H":{"ha":1214,"x_min":0,"x_max":0,"o":"m 33 0 l 472 0 l 336 90 l 326 490 l 888 490 l 878 90 l 742 0 l 1181 0 l 1044 90 l 1033 533 l 1044 924 l 1181 1014 l 742 1014 l 878 924 l 888 563 l 326 563 l 336 924 l 472 1014 l 33 1014 l 169 924 l 181 533 l 169 90 z "},"I":{"ha":506,"x_min":0,"x_max":0,"o":"m 33 0 l 472 0 l 336 90 l 325 533 l 336 924 l 472 1014 l 33 1014 l 169 924 l 181 533 l 169 90 z "},"J":{"ha":444,"x_min":0,"x_max":0,"o":"m 272 171 l 272 179 l 264 533 l 275 924 l 411 1014 l -28 1014 l 108 924 l 119 533 l 107 35 b -50 -332 99 -126 72 -224 l -42 -344 b 272 171 139 -218 272 -121 z "},"K":{"ha":1149,"x_min":0,"x_max":0,"o":"m 728 924 l 328 429 l 325 533 l 336 924 l 472 1014 l 33 1014 l 169 924 l 181 533 l 169 90 l 33 0 l 472 0 l 336 90 l 329 353 l 469 524 l 749 89 l 674 -1 l 1076 -1 l 885 89 l 544 615 l 796 924 l 1003 1014 l 668 1014 z "},"L":{"ha":794,"x_min":0,"x_max":0,"o":"m 26 0 l 710 0 l 710 258 l 575 58 l 331 58 l 318 533 l 329 924 l 465 1014 l 26 1014 l 163 924 l 174 533 l 163 90 z "},"M":{"ha":1399,"x_min":0,"x_max":0,"o":"m 210 924 l 210 90 l 76 0 l 403 0 l 269 90 l 269 807 l 643 0 l 683 0 l 1076 825 l 1076 90 l 943 0 l 1322 0 l 1189 90 l 1189 924 l 1322 1014 l 1099 1014 l 693 154 l 303 1014 l 76 1014 z "},"N":{"ha":1272,"x_min":0,"x_max":0,"o":"m 1239 1014 l 886 1014 l 1022 924 l 1043 256 l 257 1014 l 33 1014 l 171 869 l 171 90 l 38 0 l 390 0 l 254 90 l 232 811 l 1106 -22 l 1106 924 z "},"O":{"ha":1242,"x_min":0,"x_max":0,"o":"m 633 -24 b 1147 503 925 -24 1147 213 b 608 1028 1147 792 951 1028 b 94 503 317 1028 94 792 b 633 -24 94 213 290 -24 z m 275 540 b 597 971 275 756 375 971 b 965 464 819 971 965 756 b 644 33 965 249 867 33 b 275 540 422 33 275 249 z "},"P":{"ha":779,"x_min":0,"x_max":0,"o":"m 311 956 l 349 956 b 575 732 510 956 575 853 b 346 458 575 589 483 458 l 311 458 z m 33 -11 l 194 3 l 238 6 l 283 3 l 444 -10 l 311 90 l 311 400 b 744 746 649 400 744 597 b 408 1014 744 915 633 1014 l 33 1014 l 167 924 l 167 90 z "},"Q":{"ha":1200,"x_min":0,"x_max":0,"o":"m 633 -24 b 671 -22 646 -24 658 -24 l 671 -153 l 733 -153 l 733 -14 b 1147 503 974 33 1147 247 b 608 1028 1147 792 951 1028 b 94 503 317 1028 94 792 b 633 -24 94 213 290 -24 z m 275 540 b 597 971 275 756 375 971 b 965 464 819 971 965 756 b 733 46 965 279 893 96 l 733 163 l 671 163 l 671 35 b 644 33 663 33 653 33 b 275 540 422 33 275 249 z "},"R":{"ha":1108,"x_min":0,"x_max":0,"o":"m 325 956 l 363 956 b 589 729 524 956 589 850 b 360 458 589 586 497 458 l 325 458 z m 47 0 l 458 0 l 325 90 l 325 400 l 432 400 l 435 401 l 692 90 l 633 0 l 1063 0 l 856 90 l 569 440 b 758 743 676 508 758 606 b 422 1014 758 913 647 1014 l 47 1014 l 181 924 l 181 90 z "},"S":{"ha":644,"x_min":0,"x_max":0,"o":"m 57 785 b 281 479 57 647 153 547 b 490 203 475 376 490 313 b 289 36 490 129 418 36 b 157 60 246 36 203 43 l 67 236 l 67 24 b 313 -21 149 -7 208 -21 b 588 256 461 -21 588 101 b 329 606 588 399 542 503 b 149 825 232 653 149 724 b 315 971 149 926 218 971 b 426 947 351 971 386 964 l 517 768 l 517 982 b 322 1028 456 1014 386 1028 b 57 785 201 1028 57 961 z "},"T":{"ha":897,"x_min":0,"x_max":0,"o":"m 126 951 l 361 951 l 374 533 l 363 90 l 226 0 l 665 0 l 529 90 l 518 533 l 531 951 l 771 951 l 861 818 l 861 1014 l 36 1014 l 36 818 z "},"U":{"ha":1197,"x_min":0,"x_max":0,"o":"m 207 924 l 207 304 b 590 -24 207 101 351 -24 b 990 329 871 -24 990 121 l 990 924 l 1124 1014 l 797 1014 l 931 924 l 931 317 b 621 35 931 156 821 35 b 319 315 460 35 319 114 l 319 924 l 453 1014 l 74 1014 z "},"V":{"ha":1239,"x_min":0,"x_max":0,"o":"m 950 919 l 658 138 l 346 919 l 443 1010 l 53 1010 l 224 919 l 607 0 l 671 0 l 1018 919 l 1186 1010 l 850 1010 z "},"W":{"ha":1715,"x_min":0,"x_max":0,"o":"m 875 1014 l 564 149 l 343 924 l 450 1014 l 60 1014 l 221 924 l 511 0 l 576 0 l 869 806 l 1140 0 l 1211 0 l 1494 924 l 1656 1014 l 1319 1014 l 1425 924 l 1193 157 l 913 1014 z "},"X":{"ha":1118,"x_min":0,"x_max":0,"o":"m 261 924 l 501 514 l 240 90 l 51 0 l 382 0 l 304 90 l 532 461 l 532 464 l 750 90 l 669 0 l 1067 0 l 881 90 l 607 556 l 842 924 l 1033 1014 l 704 1014 l 779 924 l 576 608 l 390 924 l 471 1014 l 75 1014 z "},"Y":{"ha":1113,"x_min":0,"x_max":0,"o":"m 504 344 l 504 90 l 371 0 l 754 0 l 621 90 l 621 344 l 918 924 l 1071 1014 l 763 1014 l 850 924 l 589 418 l 328 924 l 415 1014 l 42 1014 l 197 924 z "},"Z":{"ha":885,"x_min":0,"x_max":0,"o":"m 100 1014 l 96 988 l 71 828 l 183 960 l 644 960 l 74 54 l 72 54 l 72 0 l 779 0 l 783 26 l 813 185 l 697 54 l 204 54 l 775 960 l 775 1014 z "},"a":{"ha":697,"x_min":0,"x_max":0,"o":"m 401 551 l 407 417 b 40 140 235 361 40 274 b 201 -14 40 65 99 -14 b 403 108 289 -14 364 39 b 522 -6 410 28 467 -6 b 656 111 590 -6 649 53 l 650 113 b 599 93 650 113 632 93 b 544 146 571 93 546 101 l 539 369 l 544 533 b 343 708 547 631 475 708 b 42 436 174 708 53 578 l 208 494 l 208 551 b 306 649 208 606 251 649 b 401 551 361 649 400 606 z m 186 186 b 408 360 186 278 290 317 l 403 168 b 279 104 372 132 328 104 b 186 186 217 104 186 144 z "},"b":{"ha":865,"x_min":0,"x_max":0,"o":"m 296 1076 l 40 985 l 142 944 l 151 533 l 140 -10 l 276 47 b 468 -14 333 11 390 -14 b 815 351 654 -14 815 132 b 501 708 815 561 686 708 b 283 572 381 708 311 633 z m 282 504 b 450 581 325 558 389 581 b 671 317 574 581 671 486 b 447 44 671 146 576 44 b 292 106 388 44 333 67 z "},"c":{"ha":833,"x_min":0,"x_max":0,"o":""},"d":{"ha":871,"x_min":0,"x_max":0,"o":"m 571 944 l 579 653 b 397 708 525 686 471 708 b 50 343 211 708 50 563 b 364 -14 50 133 179 -14 b 574 104 474 -14 540 47 l 571 0 l 831 0 l 722 72 l 713 533 l 724 1076 l 468 985 z m 194 378 b 418 650 194 549 289 650 b 581 582 481 650 538 625 l 582 533 l 575 181 b 415 114 532 133 472 114 b 194 378 292 114 194 208 z "},"e":{"ha":689,"x_min":0,"x_max":0,"o":"m 357 -14 b 632 199 513 -14 611 99 l 624 203 b 429 113 601 168 533 113 b 188 372 293 113 188 197 b 192 442 188 397 189 419 l 635 442 b 383 708 658 568 571 708 b 50 344 215 708 50 589 b 357 -14 50 125 193 -14 z m 203 492 b 363 651 229 590 290 651 b 490 526 433 651 490 594 b 488 500 490 519 490 511 z "},"f":{"ha":833,"x_min":0,"x_max":0,"o":""},"g":{"ha":833,"x_min":0,"x_max":0,"o":""},"h":{"ha":907,"x_min":0,"x_max":0,"o":"m 522 717 b 315 594 439 717 357 667 l 315 1154 l 56 1115 l 188 1043 l 188 90 l 81 0 l 422 0 l 315 90 l 315 508 b 488 636 357 614 418 636 b 629 451 542 636 629 608 l 629 90 l 522 0 l 864 0 l 757 90 l 757 465 b 522 717 757 649 649 717 z "},"i":{"ha":465,"x_min":0,"x_max":0,"o":"m 318 72 l 310 369 l 321 708 l 65 639 l 171 593 l 179 369 l 171 72 l 61 0 l 428 0 z m 104 951 l 239 824 l 374 951 l 239 1079 z "},"j":{"ha":394,"x_min":0,"x_max":0,"o":"m 208 528 l 208 17 b 35 -418 208 -203 179 -290 l 57 -456 b 336 51 236 -331 335 -247 l 336 707 l 300 707 l 79 682 l 79 642 l 88 642 b 208 528 156 642 208 625 z m 167 901 l 260 908 l 353 901 l 346 999 l 353 1096 l 260 1089 l 167 1096 l 174 999 z "},"k":{"ha":833,"x_min":0,"x_max":0,"o":""},"l":{"ha":447,"x_min":0,"x_max":0,"o":"m 149 944 l 158 533 l 149 72 l 40 0 l 278 0 l 407 3 l 299 72 l 289 533 l 300 1076 l 168 1028 l 47 985 z "},"m":{"ha":833,"x_min":0,"x_max":0,"o":""},"n":{"ha":889,"x_min":0,"x_max":0,"o":"m 336 72 l 328 369 l 332 508 b 474 583 376 564 422 583 b 597 464 544 583 597 539 l 600 369 l 592 72 l 482 0 l 849 0 l 739 72 l 731 369 l 733 503 b 526 708 735 581 681 708 b 335 582 447 708 375 663 l 339 708 l 207 660 l 86 617 l 189 576 l 197 369 l 189 72 l 79 0 l 446 0 z "},"o":{"ha":826,"x_min":0,"x_max":0,"o":"m 415 -14 b 776 347 635 -14 776 163 b 414 708 776 532 640 708 b 50 349 196 708 50 533 b 415 -14 50 164 189 -14 z m 219 374 b 400 651 219 518 269 651 b 607 322 531 651 607 518 b 429 43 607 178 560 43 b 219 374 297 43 219 178 z "},"p":{"ha":871,"x_min":0,"x_max":0,"o":"m 303 708 l 47 617 l 149 576 l 158 207 l 149 -261 l 40 -333 l 407 -333 l 299 -261 l 292 42 b 474 -14 346 8 400 -14 b 821 351 660 -14 821 132 b 507 708 821 561 692 708 b 300 593 400 708 333 649 z m 289 207 l 297 515 b 456 581 339 561 399 581 b 676 317 579 581 676 486 b 453 44 676 146 582 44 b 290 113 390 44 333 69 z "},"q":{"ha":858,"x_min":0,"x_max":0,"o":"m 449 -333 l 818 -333 l 710 -261 l 703 204 l 721 696 l 589 647 b 397 708 532 683 475 708 b 50 343 211 708 50 563 b 364 -14 50 133 179 -14 b 569 97 469 -14 535 43 l 558 -261 z m 194 378 b 418 650 194 549 289 650 b 569 592 475 650 528 629 l 572 204 l 571 176 b 415 114 529 133 471 114 b 194 378 292 114 194 208 z "},"r":{"ha":833,"x_min":0,"x_max":0,"o":""},"s":{"ha":833,"x_min":0,"x_max":0,"o":""},"t":{"ha":833,"x_min":0,"x_max":0,"o":""},"u":{"ha":869,"x_min":0,"x_max":0,"o":"m 711 169 l 711 707 l 675 707 l 468 694 l 468 654 l 476 654 b 583 540 544 654 583 638 l 583 188 b 418 61 543 83 488 61 b 286 229 364 61 286 89 l 286 707 l 250 707 l 43 694 l 43 654 l 51 654 b 158 540 119 654 158 638 l 158 232 b 394 -19 158 49 264 -19 b 583 100 485 -19 547 29 l 583 -10 l 619 -10 l 826 15 l 826 56 l 818 56 b 711 169 750 56 711 72 z "},"v":{"ha":833,"x_min":0,"x_max":0,"o":""},"w":{"ha":833,"x_min":0,"x_max":0,"o":""},"x":{"ha":833,"x_min":0,"x_max":0,"o":""},"y":{"ha":833,"x_min":0,"x_max":0,"o":""},"z":{"ha":833,"x_min":0,"x_max":0,"o":""},".":{"ha":297,"x_min":0,"x_max":0,"o":"m 151 221 l 39 106 l 147 -7 l 258 108 z "},",":{"ha":833,"x_min":0,"x_max":0,"o":""},"-":{"ha":833,"x_min":0,"x_max":0,"o":""}}}
